<svg width="225" height="133" viewBox="0 0 225 133" fill="none" xmlns="http://www.w3.org/2000/svg">
<path d="M79.0116 0C75.9592 0.0022175 73.0325 1.21576 70.8741 3.37413C68.7158 5.5325 67.5022 8.45924 67.5 11.5116V28.2558C67.5022 31.3082 68.7158 34.2349 70.8741 36.3933C73.0325 38.5517 75.9592 39.7652 79.0116 39.7674H95.7558C98.8082 39.7652 101.735 38.5517 103.893 36.3933C106.052 34.2349 107.265 31.3082 107.267 28.2558V11.5116C107.265 8.45924 106.052 5.5325 103.893 3.37413C101.735 1.21576 98.8082 0.0022175 95.7558 0H79.0116ZM129.244 0C126.192 0.0022175 123.265 1.21576 121.107 3.37413C118.948 5.5325 117.735 8.45924 117.733 11.5116V28.2558C117.735 31.3082 118.948 34.2349 121.107 36.3933C123.265 38.5517 126.192 39.7652 129.244 39.7674H145.988C149.041 39.7652 151.968 38.5517 154.126 36.3933C156.284 34.2349 157.498 31.3082 157.5 28.2558V11.5116C157.498 8.45924 156.284 5.5325 154.126 3.37413C151.968 1.21576 149.041 0.0022175 145.988 0H129.244ZM79.0116 6.27907H95.7558C97.1429 6.28128 98.4725 6.83328 99.4533 7.8141C100.434 8.79491 100.986 10.1245 100.988 11.5116V28.2558C100.986 29.6429 100.434 30.9725 99.4533 31.9533C98.4725 32.9342 97.1429 33.4862 95.7558 33.4884H79.0116C77.6245 33.4862 76.2949 32.9342 75.3141 31.9533C74.3333 30.9725 73.7813 29.6429 73.7791 28.2558V11.5116C73.7813 10.1245 74.3333 8.79491 75.3141 7.8141C76.2949 6.83328 77.6245 6.28128 79.0116 6.27907ZM129.244 6.27907H145.988C147.375 6.28128 148.705 6.83328 149.686 7.8141C150.667 8.79491 151.219 10.1245 151.221 11.5116V28.2558C151.219 29.6429 150.667 30.9725 149.686 31.9533C148.705 32.9342 147.375 33.4862 145.988 33.4884H129.244C127.857 33.4862 126.527 32.9342 125.547 31.9533C124.566 30.9725 124.014 29.6429 124.012 28.2558V11.5116C124.014 10.1245 124.566 8.79491 125.547 7.8141C126.527 6.83328 127.857 6.28128 129.244 6.27907ZM87.3837 13.6047C85.7184 13.6047 84.1213 14.2662 82.9437 15.4437C81.7662 16.6213 81.1047 18.2184 81.1047 19.8837C81.1047 21.549 81.7662 23.1461 82.9437 24.3237C84.1213 25.5012 85.7184 26.1628 87.3837 26.1628C89.049 26.1628 90.6461 25.5012 91.8237 24.3237C93.0012 23.1461 93.6628 21.549 93.6628 19.8837C93.6628 18.2184 93.0012 16.6213 91.8237 15.4437C90.6461 14.2662 89.049 13.6047 87.3837 13.6047ZM137.616 13.6047C135.951 13.6047 134.354 14.2662 133.176 15.4437C131.999 16.6213 131.337 18.2184 131.337 19.8837C131.337 21.549 131.999 23.1461 133.176 24.3237C134.354 25.5012 135.951 26.1628 137.616 26.1628C139.282 26.1628 140.879 25.5012 142.056 24.3237C143.234 23.1461 143.895 21.549 143.895 19.8837C143.895 18.2184 143.234 16.6213 142.056 15.4437C140.879 14.2662 139.282 13.6047 137.616 13.6047ZM79.0116 50.2326C75.9592 50.2348 73.0325 51.4483 70.8741 53.6067C68.7158 55.7651 67.5022 58.6918 67.5 61.7442V78.4884C67.5022 81.5408 68.7158 84.4675 70.8741 86.6259C73.0325 88.7842 75.9592 89.9978 79.0116 90H95.7558C98.8082 89.9978 101.735 88.7842 103.893 86.6259C106.052 84.4675 107.265 81.5408 107.267 78.4884V61.7442C107.265 58.6918 106.052 55.7651 103.893 53.6067C101.735 51.4483 98.8082 50.2348 95.7558 50.2326H79.0116ZM116.555 54.4186C115.723 54.436 114.931 54.7834 114.354 55.3844C113.778 55.9854 113.464 56.7909 113.481 57.6235C113.498 58.4562 113.846 59.2479 114.447 59.8244C115.048 60.4009 115.853 60.715 116.686 60.6977H154.36C155.193 60.6977 155.992 60.3669 156.58 59.7781C157.169 59.1894 157.5 58.3908 157.5 57.5581C157.5 56.7255 157.169 55.9269 156.58 55.3382C155.992 54.7494 155.193 54.4186 154.36 54.4186H116.686C116.642 54.4177 116.599 54.4177 116.555 54.4186ZM79.0116 56.5116H95.7558C97.1429 56.5138 98.4725 57.0658 99.4533 58.0467C100.434 59.0275 100.986 60.3571 100.988 61.7442V78.4884C100.986 79.8755 100.434 81.2051 99.4533 82.1859C98.4725 83.1667 97.1429 83.7187 95.7558 83.7209H79.0116C77.6245 83.7187 76.2949 83.1667 75.3141 82.1859C74.3333 81.2051 73.7813 79.8755 73.7791 78.4884V61.7442C73.7813 60.3571 74.3333 59.0275 75.3141 58.0467C76.2949 57.0658 77.6245 56.5138 79.0116 56.5116ZM87.3837 63.8372C85.7184 63.8372 84.1213 64.4988 82.9437 65.6763C81.7662 66.8539 81.1047 68.451 81.1047 70.1163C81.1047 71.7816 81.7662 73.3787 82.9437 74.5563C84.1213 75.7338 85.7184 76.3953 87.3837 76.3953C89.049 76.3953 90.6461 75.7338 91.8237 74.5563C93.0012 73.3787 93.6628 71.7816 93.6628 70.1163C93.6628 68.451 93.0012 66.8539 91.8237 65.6763C90.6461 64.4988 89.049 63.8372 87.3837 63.8372ZM135.523 63.8372C133.858 63.8372 132.261 64.4988 131.083 65.6763C129.906 66.8539 129.244 68.451 129.244 70.1163C129.244 71.7816 129.906 73.3787 131.083 74.5563C132.261 75.7338 133.858 76.3953 135.523 76.3953C137.189 76.3953 138.786 75.7338 139.963 74.5563C141.141 73.3787 141.802 71.7816 141.802 70.1163C141.802 68.451 141.141 66.8539 139.963 65.6763C138.786 64.4988 137.189 63.8372 135.523 63.8372ZM125.058 76.3953C123.393 76.3953 121.796 77.0569 120.618 78.2345C119.441 79.412 118.779 81.0091 118.779 82.6744C118.779 84.3397 119.441 85.9368 120.618 87.1144C121.796 88.2919 123.393 88.9535 125.058 88.9535C126.723 88.9535 128.321 88.2919 129.498 87.1144C130.676 85.9368 131.337 84.3397 131.337 82.6744C131.337 81.0091 130.676 79.412 129.498 78.2345C128.321 77.0569 126.723 76.3953 125.058 76.3953ZM145.988 76.3953C144.323 76.3953 142.726 77.0569 141.548 78.2345C140.371 79.412 139.709 81.0091 139.709 82.6744C139.709 84.3397 140.371 85.9368 141.548 87.1144C142.726 88.2919 144.323 88.9535 145.988 88.9535C147.654 88.9535 149.251 88.2919 150.428 87.1144C151.606 85.9368 152.267 84.3397 152.267 82.6744C152.267 81.0091 151.606 79.412 150.428 78.2345C149.251 77.0569 147.654 76.3953 145.988 76.3953Z" fill="white"/>
<path d="M25.864 102.248C26.2 102.248 26.608 102.476 27.088 102.932C27.592 103.364 27.844 103.736 27.844 104.048C27.844 105.512 27.796 107.516 27.7 110.06C27.676 110.684 27.652 111.44 27.628 112.328C27.604 113.192 27.592 114.2 27.592 115.352C27.592 119 27.808 121.688 28.24 123.416C28.216 123.992 27.988 124.412 27.556 124.676C27.124 124.916 26.692 125.036 26.26 125.036C25.3 125.036 24.664 124.7 24.352 124.028C24.064 123.356 23.92 122.396 23.92 121.148C23.92 116.516 23.968 112.256 24.064 108.368C21.304 111.44 19.156 114.02 17.62 116.108C17.62 116.108 17.404 116.252 16.972 116.54C16.564 116.9 16.228 117.08 15.964 117.08C15.34 117.08 14.824 116.924 14.416 116.612C14.008 116.3 13.612 115.844 13.228 115.244L11.5 112.796C10.3 111.116 9.424 109.844 8.872 108.98C8.872 111.188 8.98 114.188 9.196 117.98C9.364 120.164 9.448 121.808 9.448 122.912C9.448 123.488 9.304 123.98 9.016 124.388C8.728 124.772 8.272 124.964 7.648 124.964C7.024 124.964 6.508 124.844 6.1 124.604C5.716 124.364 5.512 124.004 5.488 123.524C5.512 123.116 5.524 122.444 5.524 121.508C5.524 119.636 5.464 117.356 5.344 114.668L5.272 112.724L5.2 110.204C5.176 109.46 5.152 108.596 5.128 107.612C5.104 106.604 5.092 105.512 5.092 104.336C5.092 102.896 5.872 102.176 7.432 102.176C7.912 102.176 8.392 102.296 8.872 102.536C9.376 102.776 9.748 103.124 9.988 103.58C10.18 104.42 10.888 105.812 12.112 107.756C13.336 109.7 14.536 111.524 15.712 113.228C16.768 111.884 17.632 110.876 18.304 110.204C19.456 109.028 20.404 107.936 21.148 106.928C21.916 105.92 22.744 104.708 23.632 103.292C23.848 103.004 24.16 102.764 24.568 102.572C24.976 102.356 25.408 102.248 25.864 102.248ZM36.6328 132.344C35.7208 132.344 34.9528 132.188 34.3288 131.876C33.7288 131.588 33.2728 131.228 32.9608 130.796C32.6728 130.388 32.5288 130.028 32.5288 129.716C32.5288 129.308 32.6728 128.984 32.9608 128.744C33.2488 128.528 33.5968 128.42 34.0048 128.42C34.2448 128.42 34.4728 128.492 34.6888 128.636C34.9048 128.78 35.0248 128.864 35.0488 128.888C35.2168 129.008 35.3848 129.104 35.5528 129.176C35.7208 129.272 35.9008 129.32 36.0928 129.32C36.6208 129.32 37.0528 128.972 37.3888 128.276C37.7248 127.58 38.0608 126.452 38.3968 124.892C37.3168 123.308 36.4168 121.724 35.6968 120.14L34.8688 118.232C34.7488 117.944 34.4128 117.2 33.8608 116C33.3328 114.776 32.8048 113.696 32.2768 112.76C31.9408 112.088 31.7728 111.632 31.7728 111.392C31.7728 110.792 31.9768 110.348 32.3848 110.06C32.8168 109.772 33.3088 109.628 33.8608 109.628C34.2448 109.628 34.5328 109.712 34.7248 109.88C34.9408 110.024 35.1808 110.3 35.4448 110.708C36.1408 111.86 36.8968 113.588 37.7128 115.892C38.1928 117.212 38.5768 118.22 38.8648 118.916C39.1528 119.588 39.5008 120.272 39.9088 120.968C40.3168 120.032 40.8328 118.436 41.4568 116.18C41.8408 114.884 42.1528 113.852 42.3928 113.084C42.6568 112.292 42.9448 111.572 43.2568 110.924C43.4728 110.492 43.7368 110.144 44.0488 109.88C44.3848 109.616 44.7568 109.484 45.1648 109.484C45.5728 109.484 46.0048 109.64 46.4608 109.952C46.9408 110.24 47.1808 110.588 47.1808 110.996C47.1808 111.236 47.0968 111.524 46.9288 111.86C45.9928 114.02 45.1648 116.06 44.4448 117.98C43.7488 119.876 43.0768 121.964 42.4288 124.244C42.0448 125.516 41.6368 126.728 41.2048 127.88C40.7968 129.032 40.5088 129.74 40.3408 130.004C39.8608 130.676 39.3208 131.228 38.7208 131.66C38.1208 132.116 37.4248 132.344 36.6328 132.344ZM65.3158 104.768C65.3158 104.072 65.4718 103.472 65.7838 102.968C66.1198 102.44 66.6118 102.176 67.2598 102.176C67.8118 102.176 68.3038 102.284 68.7358 102.5C69.1678 102.716 69.3838 103.076 69.3838 103.58C69.3838 104.564 69.3358 105.944 69.2398 107.72C69.1438 109.448 69.0958 110.732 69.0958 111.572C69.0958 112.892 69.1438 114.656 69.2398 116.864C69.3358 118.976 69.3838 120.524 69.3838 121.508C69.3838 122.3 69.3718 122.888 69.3478 123.272C69.3478 123.656 69.1318 124.04 68.6998 124.424C68.2918 124.784 67.6558 124.964 66.7918 124.964C66.3358 124.964 65.9398 124.892 65.6038 124.748C65.2918 124.58 65.0758 124.4 64.9558 124.208C63.8278 122.84 62.1838 120.512 60.0238 117.224C57.5998 113.552 55.6198 110.744 54.0838 108.8C54.2758 110.528 54.3718 112.64 54.3718 115.136C54.3718 116.24 54.3478 117.68 54.2998 119.456C54.2758 121.208 54.2278 122.36 54.1558 122.912C54.0598 123.608 53.8438 124.148 53.5078 124.532C53.1958 124.892 52.6918 125.072 51.9958 125.072C51.4678 125.072 51.0718 124.928 50.8078 124.64C50.5678 124.328 50.4238 123.8 50.3758 123.056C50.3518 122.072 50.4118 120.596 50.5558 118.628C50.5798 118.316 50.6158 117.776 50.6638 117.008C50.7118 116.24 50.7358 115.556 50.7358 114.956C50.7358 113.3 50.6518 111.404 50.4838 109.268C50.3398 106.916 50.2678 105.176 50.2678 104.048C50.2678 103.472 50.4718 103.028 50.8798 102.716C51.3118 102.404 51.8038 102.248 52.3558 102.248C52.8358 102.248 53.3398 102.368 53.8678 102.608C55.9318 105.2 58.7278 109.064 62.2558 114.2L65.6398 119.384C65.6638 119 65.6758 118.46 65.6758 117.764C65.6758 116.54 65.6518 115.22 65.6038 113.804C65.5558 112.388 65.5198 111.428 65.4958 110.924C65.3758 108.596 65.3158 106.544 65.3158 104.768ZM73.1928 112.868C73.0008 112.868 72.8208 112.796 72.6528 112.652C72.5088 112.484 72.4368 112.292 72.4368 112.076C72.4368 111.524 72.6768 111.008 73.1567 110.528C73.3008 110.456 73.5888 110.336 74.0208 110.168C74.4528 110 74.8368 109.916 75.1728 109.916C76.0848 109.916 76.8288 110.168 77.4048 110.672C77.9808 111.152 78.2688 111.848 78.2688 112.76C78.2688 113.024 78.2208 113.588 78.1248 114.452C78.0288 115.46 77.9808 116.24 77.9808 116.792C77.9808 118.472 78.2088 119.828 78.6648 120.86C78.8328 121.196 79.0968 121.46 79.4568 121.652C79.8168 121.844 80.1408 121.94 80.4288 121.94C81.1248 121.94 81.6888 121.82 82.1208 121.58C82.5528 121.34 83.0208 120.956 83.5248 120.428C84.0288 119.9 84.3528 119.3 84.4968 118.628C84.6648 117.956 84.7848 117.032 84.8568 115.856C84.9048 115.088 84.9528 114.524 85.0008 114.164C85.1208 113.012 85.1808 112.028 85.1808 111.212C85.1808 110.684 85.3248 110.252 85.6128 109.916C85.9008 109.556 86.2968 109.376 86.8008 109.376C87.0888 109.376 87.4128 109.472 87.7728 109.664C88.1568 109.832 88.4088 110.036 88.5288 110.276C88.6728 110.516 88.7448 110.912 88.7448 111.464C88.7448 111.752 88.7088 112.028 88.6368 112.292C88.4688 112.892 88.3848 113.612 88.3848 114.452L88.4208 116.324C88.4208 118.028 88.5408 119.288 88.7808 120.104C88.9008 120.488 89.0688 120.884 89.2848 121.292C89.5008 121.676 89.7048 122 89.8968 122.264C90.3768 122.792 90.6888 123.164 90.8328 123.38C90.9768 123.572 91.0488 123.764 91.0488 123.956C91.0488 124.244 90.9048 124.52 90.6168 124.784C90.3528 125.024 90.0648 125.144 89.7528 125.144C88.8648 125.144 88.0968 124.844 87.4488 124.244C86.8008 123.644 86.3208 122.864 86.0088 121.904C85.1928 122.84 84.4368 123.596 83.7408 124.172C83.2608 124.508 82.6728 124.76 81.9768 124.928C81.2808 125.072 80.5848 125.144 79.8888 125.144C78.9528 125.144 78.0048 124.76 77.0448 123.992C76.0848 123.224 75.4368 122.336 75.1008 121.328C75.0768 121.28 75.0048 121.088 74.8848 120.752C74.7888 120.416 74.7408 119.912 74.7408 119.24C74.7408 118.352 74.7888 117.236 74.8848 115.892C74.9568 115.028 74.9928 114.236 74.9928 113.516C74.9928 113.3 74.9088 113.12 74.7408 112.976C74.5968 112.832 74.4288 112.76 74.2368 112.76C74.0928 112.76 73.9248 112.784 73.7328 112.832C73.5648 112.856 73.3848 112.868 73.1928 112.868ZM93.7752 112.472C93.4392 112.424 93.1632 112.292 92.9472 112.076C92.7552 111.836 92.6592 111.548 92.6592 111.212C92.6592 110.78 92.8272 110.42 93.1632 110.132C93.2352 110.06 93.3552 110 93.5232 109.952C93.6912 109.88 93.8232 109.82 93.9192 109.772C94.4472 109.604 94.7832 109.472 94.9272 109.376C95.4792 109.04 95.8512 108.488 96.0432 107.72C96.2352 106.808 96.3552 106.184 96.4032 105.848C96.4512 105.32 96.6192 104.924 96.9072 104.66C97.2192 104.372 97.6032 104.228 98.0592 104.228C98.6592 104.228 99.0792 104.384 99.3192 104.696C99.5592 105.008 99.6792 105.584 99.6792 106.424C99.6792 107.528 99.4152 108.572 98.8872 109.556C99.2232 109.556 99.7752 109.532 100.543 109.484C101.695 109.436 102.499 109.412 102.955 109.412C103.363 109.412 103.711 109.52 103.999 109.736C104.311 109.928 104.467 110.216 104.467 110.6C104.467 111.512 104.047 112.052 103.207 112.22C102.439 112.436 101.047 112.568 99.0312 112.616C98.8632 114.968 98.7792 116.828 98.7792 118.196C98.7792 119.036 98.8152 119.636 98.8872 119.996C99.0312 120.74 99.2712 121.292 99.6072 121.652C99.9672 121.988 100.495 122.156 101.191 122.156C101.527 122.156 102.031 122.072 102.703 121.904C103.111 121.784 103.435 121.724 103.675 121.724C103.987 121.724 104.227 121.832 104.395 122.048C104.563 122.264 104.647 122.552 104.647 122.912C104.647 123.56 104.227 124.1 103.387 124.532C102.547 124.94 101.551 125.144 100.399 125.144C99.6792 125.144 98.9712 124.976 98.2752 124.64C97.5792 124.28 96.9912 123.848 96.5112 123.344C96.4152 123.296 96.2712 123.032 96.0792 122.552C95.9112 122.072 95.7432 121.544 95.5752 120.968C95.5032 120.68 95.4672 119.984 95.4672 118.88C95.4672 117.824 95.5392 116 95.6832 113.408L95.7192 112.616C95.5512 112.616 95.2392 112.604 94.7832 112.58C94.3272 112.532 93.9912 112.496 93.7752 112.472ZM112.244 123.56C112.196 123.968 112.028 124.328 111.74 124.64C111.452 124.952 111.08 125.108 110.624 125.108C109.904 125.108 109.376 124.976 109.04 124.712C108.704 124.424 108.536 123.908 108.536 123.164C108.536 122.156 108.596 121.052 108.716 119.852C108.812 118.46 108.86 117.392 108.86 116.648C108.86 116.264 108.836 115.784 108.788 115.208C108.74 114.68 108.716 114.284 108.716 114.02C108.644 113.612 108.476 113.288 108.212 113.048C107.972 112.808 107.588 112.604 107.06 112.436C106.844 112.34 106.664 112.184 106.52 111.968C106.376 111.728 106.304 111.512 106.304 111.32C106.304 110.768 106.52 110.348 106.952 110.06C107.384 109.772 107.912 109.628 108.536 109.628C109.232 109.628 109.832 109.868 110.336 110.348C110.84 110.828 111.224 111.428 111.488 112.148C112.04 111.356 112.712 110.72 113.504 110.24C114.32 109.76 115.112 109.52 115.88 109.52C116.864 109.52 117.692 109.688 118.364 110.024C119.06 110.336 119.408 110.888 119.408 111.68C119.408 112.136 119.204 112.616 118.796 113.12C118.412 113.6 118.016 113.84 117.608 113.84C117.296 113.84 116.924 113.696 116.492 113.408C116.324 113.288 116.132 113.192 115.916 113.12C115.724 113.024 115.52 112.976 115.304 112.976C114.92 112.976 114.56 113.036 114.224 113.156C113.888 113.276 113.66 113.42 113.54 113.588C113.156 114.188 112.868 114.728 112.676 115.208C112.508 115.688 112.424 116.204 112.424 116.756C112.424 117.164 112.412 117.488 112.388 117.728L112.352 119.78L112.388 121.148C112.388 122.156 112.34 122.96 112.244 123.56ZM123.385 101.888C124.225 101.96 124.957 102.188 125.581 102.572C126.205 102.932 126.517 103.484 126.517 104.228C126.517 104.78 126.253 105.224 125.725 105.56C125.221 105.872 124.609 106.028 123.889 106.028C123.193 106.028 122.713 105.848 122.449 105.488C122.185 105.128 122.053 104.756 122.053 104.372C122.053 103.652 122.125 103.052 122.269 102.572C122.437 102.092 122.809 101.864 123.385 101.888ZM126.265 117.836V118.88C126.265 119.816 126.289 120.704 126.337 121.544C126.409 122.36 126.493 123.188 126.589 124.028C126.589 124.316 126.421 124.58 126.085 124.82C125.749 125.036 125.437 125.144 125.149 125.144C124.693 125.144 124.225 125.06 123.745 124.892C123.289 124.7 123.013 124.472 122.917 124.208C122.773 123.44 122.701 122.756 122.701 122.156C122.701 120.188 122.641 117.98 122.521 115.532C122.425 113.372 122.377 111.86 122.377 110.996C122.377 110.564 122.593 110.192 123.025 109.88C123.457 109.568 123.913 109.412 124.393 109.412C125.089 109.412 125.569 109.568 125.833 109.88C126.121 110.192 126.265 110.684 126.265 111.356V117.836ZM147.644 107.684C147.524 107.588 147.14 107.312 146.492 106.856C145.844 106.376 145.22 106.04 144.62 105.848C144.02 105.632 143.384 105.524 142.712 105.524C141.68 105.524 140.696 105.656 139.76 105.92C138.824 106.16 138.02 106.532 137.348 107.036C135.38 108.476 134.396 110.936 134.396 114.416C134.396 115.928 134.756 117.26 135.476 118.412C136.196 119.54 137.12 120.404 138.248 121.004C139.376 121.604 140.54 121.904 141.74 121.904C142.94 121.904 143.984 121.724 144.872 121.364C145.76 120.98 146.468 120.488 146.996 119.888C147.428 119.336 147.716 118.724 147.86 118.052C148.004 117.356 148.076 116.6 148.076 115.784C148.076 115.544 147.884 115.376 147.5 115.28C147.116 115.184 146.564 115.136 145.844 115.136C145.484 115.136 144.848 115.16 143.936 115.208L142.28 115.28C141.584 115.28 141.032 115.148 140.624 114.884C140.216 114.62 140.012 114.272 140.012 113.84C140.012 112.736 140.72 112.184 142.136 112.184C143.288 112.184 144.5 112.22 145.772 112.292C147.356 112.34 148.436 112.364 149.012 112.364C149.852 112.364 150.524 112.628 151.028 113.156C151.556 113.684 151.82 114.452 151.82 115.46C151.82 116.42 151.616 117.524 151.208 118.772C150.8 119.996 150.236 121.1 149.516 122.084C148.796 123.044 147.752 123.776 146.384 124.28C145.016 124.76 143.468 125 141.74 125C140.324 125 138.932 124.772 137.564 124.316C136.22 123.86 135.104 123.224 134.216 122.408C133.112 121.376 132.236 120.152 131.588 118.736C130.964 117.296 130.652 115.868 130.652 114.452C130.652 112.34 131.096 110.324 131.984 108.404C132.872 106.46 134.132 104.948 135.764 103.868C136.484 103.388 137.528 102.992 138.896 102.68C140.288 102.368 141.536 102.212 142.64 102.212C145.928 102.212 148.268 103.208 149.66 105.2C149.948 105.632 150.092 106.016 150.092 106.352C150.092 106.736 149.924 107.096 149.588 107.432C149.252 107.768 148.916 107.936 148.58 107.936C148.436 107.936 148.268 107.912 148.076 107.864C147.884 107.816 147.74 107.756 147.644 107.684ZM155.219 112.868C155.027 112.868 154.859 112.796 154.715 112.652C154.571 112.484 154.499 112.292 154.499 112.076C154.499 111.38 154.727 110.852 155.183 110.492C155.639 110.108 156.203 109.916 156.875 109.916C157.811 109.916 158.615 110.168 159.287 110.672C159.983 111.152 160.331 111.848 160.331 112.76C160.331 113 160.283 113.912 160.187 115.496C160.091 117.32 160.043 118.532 160.043 119.132C160.043 119.972 160.199 120.656 160.511 121.184C160.847 121.688 161.363 121.94 162.059 121.94C163.403 121.94 164.435 121.196 165.155 119.708C165.899 118.196 166.391 116.348 166.631 114.164C166.727 113.204 166.871 112.196 167.063 111.14C167.159 110.564 167.291 110.144 167.459 109.88C167.627 109.616 167.951 109.484 168.431 109.484C168.743 109.484 169.103 109.556 169.511 109.7C169.943 109.844 170.219 110.036 170.339 110.276C170.483 110.636 170.555 111.032 170.555 111.464C170.555 112.064 170.471 112.844 170.303 113.804C170.111 114.764 169.979 115.808 169.907 116.936C169.859 117.944 170.015 119 170.375 120.104C170.735 121.208 171.251 121.928 171.923 122.264C172.691 122.648 173.075 122.996 173.075 123.308C173.075 123.812 172.895 124.208 172.535 124.496C172.175 124.784 171.827 124.928 171.491 124.928C170.603 124.928 169.799 124.604 169.079 123.956C168.383 123.308 167.879 122.504 167.567 121.544C167.063 122.312 166.571 122.948 166.091 123.452C165.635 123.932 165.047 124.34 164.327 124.676C163.607 124.988 162.719 125.144 161.663 125.144C160.415 125.144 159.275 124.7 158.243 123.812C157.235 122.924 156.731 121.4 156.731 119.24C156.731 118.64 156.743 118.004 156.767 117.332C156.815 116.66 156.839 116.18 156.839 115.892C156.911 115.028 156.947 114.236 156.947 113.516C156.947 113.3 156.863 113.12 156.695 112.976C156.551 112.832 156.383 112.76 156.191 112.76C156.047 112.76 155.879 112.784 155.687 112.832C155.519 112.856 155.363 112.868 155.219 112.868ZM177.455 101.888C178.295 101.96 179.027 102.188 179.651 102.572C180.275 102.932 180.587 103.484 180.587 104.228C180.587 104.78 180.323 105.224 179.795 105.56C179.291 105.872 178.679 106.028 177.959 106.028C177.263 106.028 176.783 105.848 176.519 105.488C176.255 105.128 176.123 104.756 176.123 104.372C176.123 103.652 176.195 103.052 176.339 102.572C176.507 102.092 176.879 101.864 177.455 101.888ZM180.335 117.836V118.88C180.335 119.816 180.359 120.704 180.407 121.544C180.479 122.36 180.563 123.188 180.659 124.028C180.635 124.268 180.455 124.52 180.119 124.784C179.783 125.024 179.483 125.144 179.219 125.144C178.763 125.144 178.295 125.06 177.815 124.892C177.359 124.7 177.083 124.472 176.987 124.208C176.843 123.44 176.771 122.756 176.771 122.156C176.771 120.188 176.711 117.98 176.591 115.532C176.495 113.372 176.447 111.86 176.447 110.996C176.447 110.564 176.663 110.192 177.095 109.88C177.527 109.568 177.983 109.412 178.463 109.412C179.159 109.412 179.639 109.568 179.903 109.88C180.191 110.192 180.335 110.684 180.335 111.356V117.836ZM199.194 102.464C199.194 102.704 199.134 103.364 199.014 104.444C198.75 107.084 198.618 109.76 198.618 112.472C198.618 114.848 198.654 116.66 198.726 117.908C198.798 119.156 198.978 120.116 199.266 120.788C199.554 121.436 199.998 121.76 200.598 121.76C201.75 121.76 202.326 122.144 202.326 122.912C202.326 123.416 202.074 123.848 201.57 124.208C201.066 124.544 200.514 124.712 199.914 124.712C199.194 124.712 198.522 124.544 197.898 124.208C197.274 123.872 196.782 123.356 196.422 122.66C195.918 123.404 195.186 124.004 194.226 124.46C193.29 124.892 192.378 125.108 191.49 125.108C190.122 125.108 188.91 124.82 187.854 124.244C186.798 123.668 185.982 122.888 185.406 121.904C184.83 120.896 184.542 119.792 184.542 118.592C184.542 117.44 184.674 116.336 184.938 115.28C185.226 114.2 185.61 113.312 186.09 112.616C186.738 111.704 187.602 110.984 188.682 110.456C189.786 109.904 190.866 109.628 191.922 109.628C192.57 109.628 193.182 109.76 193.758 110.024C194.334 110.264 194.838 110.564 195.27 110.924C195.27 109.316 195.258 108.308 195.234 107.9V107.144C195.234 104.912 195.378 103.28 195.666 102.248C195.93 101.24 196.566 100.736 197.574 100.736C198.126 100.736 198.534 100.856 198.798 101.096C199.062 101.336 199.194 101.792 199.194 102.464ZM188.106 118.52C188.106 119.624 188.418 120.512 189.042 121.184C189.69 121.856 190.458 122.192 191.346 122.192C192.618 122.192 193.554 121.796 194.154 121.004C194.778 120.212 195.09 119.192 195.09 117.944L195.054 114.38C194.118 113.348 193.146 112.832 192.138 112.832C191.442 112.832 190.782 113.012 190.158 113.372C189.558 113.708 189.078 114.224 188.718 114.92C188.31 115.712 188.106 116.912 188.106 118.52ZM204.333 116.756C204.333 115.292 204.657 114.08 205.305 113.12C205.953 112.136 206.853 111.212 208.005 110.348C208.341 110.108 208.905 109.904 209.697 109.736C210.489 109.544 211.185 109.448 211.785 109.448C212.505 109.448 213.261 109.604 214.053 109.916C214.869 110.204 215.529 110.54 216.033 110.924C216.921 111.572 217.533 112.328 217.869 113.192C218.205 114.032 218.373 115.04 218.373 116.216C218.373 116.72 218.085 117.212 217.509 117.692C216.957 118.148 216.357 118.376 215.709 118.376L214.341 118.34C213.645 118.34 212.649 118.364 211.353 118.412L210.597 118.448C210.069 118.496 209.673 118.52 209.409 118.52C209.025 118.52 208.497 118.472 207.825 118.376C207.921 119.504 208.341 120.392 209.085 121.04C209.829 121.664 210.633 121.976 211.497 121.976C213.009 121.976 214.065 121.676 214.665 121.076C215.169 120.716 215.505 120.488 215.673 120.392C215.841 120.296 216.105 120.248 216.465 120.248C216.849 120.248 217.185 120.428 217.473 120.788C217.761 121.148 217.905 121.508 217.905 121.868C217.905 122.276 217.653 122.696 217.149 123.128C216.669 123.536 216.009 123.968 215.169 124.424C214.713 124.616 214.089 124.784 213.297 124.928C212.505 125.072 211.845 125.144 211.317 125.144C210.477 125.144 209.541 124.904 208.509 124.424C207.477 123.92 206.709 123.368 206.205 122.768C205.701 122.168 205.257 121.316 204.873 120.212C204.513 119.108 204.333 117.956 204.333 116.756ZM211.497 115.784C213.201 115.784 214.449 115.724 215.241 115.604C215.193 114.908 214.977 114.344 214.593 113.912C214.209 113.456 213.681 113.072 213.009 112.76C212.793 112.664 212.601 112.592 212.433 112.544C212.265 112.496 212.073 112.472 211.857 112.472C210.753 112.472 209.817 112.772 209.049 113.372C208.305 113.972 207.861 114.74 207.717 115.676C208.917 115.748 210.177 115.784 211.497 115.784Z" fill="white"/>
</svg>
